{
  "asset": {
    "version": "2.0",
    "generator": "THREE.GLTFExporter"
  },
  "scenes": [
    {
      "nodes": [
        0
      ]
    }
  ],
  "scene": 0,
  "nodes": [
    {
      "children": [
        24
      ],
      "matrix": [
        0.01,
        0,
        0,
        0,
        0,
        0.01,
        0,
        0,
        0,
        0,
        0.01,
        0,
        0,
        0,
        0,
        1
      ]
    },
    {
      "matrix": [
        1,
        0,
        0,
        0,
        0,
        1,
        0,
        0,
        0,
        0,
        1,
        0,
        0,
        -55.31782643506517,
        0,
        1
      ],
      "name": "NORMAL",
      "mesh": 0
    },
    {
      "matrix": [
        1,
        0,
        0,
        0,
        0,
        1,
        0,
        0,
        0,
        0,
        1,
        0,
        0,
        -1446.9144195813515,
        0,
        1
      ],
      "name": "NORMAL",
      "mesh": 1
    },
    {
      "matrix": [
        1,
        0,
        0,
        0,
        0,
        1,
        0,
        0,
        0,
        0,
        1,
        0,
        11.541564135863155,
        811.6477443834278,
        307.13446339351333,
        1
      ],
      "name": "REACCIONES",
      "children": [
        1,
        2
      ]
    },
    {
      "matrix": [
        1,
        0,
        0,
        0,
        0,
        1,
        0,
        0,
        0,
        0,
        1,
        0,
        0,
        0,
        -964.77,
        1
      ],
      "name": "Rectangle",
      "mesh": 2
    },
    {
      "matrix": [
        1,
        0,
        0,
        0,
        0,
        1,
        0,
        0,
        0,
        0,
        1,
        0,
        -105.00074125324926,
        -5.034863404117459,
        0,
        1
      ],
      "name": "DER",
      "mesh": 3
    },
    {
      "matrix": [
        1,
        0,
        0,
        0,
        0,
        1,
        0,
        0,
        0,
        0,
        1,
        0,
        105.00074125324926,
        5.034863404117459,
        0,
        1
      ],
      "name": "IZ",
      "mesh": 4
    },
    {
      "matrix": [
        1,
        0,
        0,
        0,
        0,
        1,
        0,
        0,
        0,
        0,
        1,
        0,
        1.0037526151763032,
        -84.33817517096847,
        96,
        1
      ],
      "name": "MANOS",
      "children": [
        5,
        6
      ]
    },
    {
      "matrix": [
        0.9740682522199788,
        0,
        0,
        0,
        0,
        0.9740682522199788,
        0,
        0,
        0,
        0,
        0.9740682522199788,
        0,
        -0.21687668969927953,
        -40.79612508737319,
        -13.345784583206811,
        0.9999999999999999
      ],
      "name": "CUELLO",
      "mesh": 5
    },
    {
      "matrix": [
        1,
        0,
        0,
        0,
        0,
        1,
        0,
        0,
        0,
        0,
        1,
        0,
        -2.220446049250313e-15,
        12.32272788465075,
        7.105427357601002e-15,
        1
      ],
      "name": "CABEZA",
      "mesh": 6
    },
    {
      "matrix": [
        1.026622105505359,
        0,
        0,
        0,
        0,
        1.026622105505359,
        0,
        0,
        0,
        0,
        1.026622105505359,
        0,
        1.6827213758012927,
        7.105427357601002e-15,
        -9.759808886542272,
        1
      ],
      "name": "Cuerpo",
      "children": [
        8,
        9
      ]
    },
    {
      "matrix": [
        1.01479231536032e-8,
        0,
        -0.3931845347334364,
        0,
        0,
        0.39318453473343645,
        0,
        0,
        0.3931845347334364,
        0,
        1.01479231536032e-8,
        0,
        -89.79766994068898,
        0,
        -14.62697279604971,
        1
      ],
      "name": "OREJA DER",
      "mesh": 7
    },
    {
      "matrix": [
        1.01479231536032e-8,
        0,
        -0.3931845347334364,
        0,
        0,
        0.39318453473343645,
        0,
        0,
        0.3931845347334364,
        0,
        1.01479231536032e-8,
        0,
        89.79766994068895,
        0,
        -14.6269681607715,
        1
      ],
      "name": "OREJA IZ",
      "mesh": 8
    },
    {
      "matrix": [
        0.7280251420875689,
        0,
        0,
        0,
        0,
        0.7280251420875689,
        0,
        0,
        0,
        0,
        0.7280251420875689,
        0,
        -5.551115123125782e-16,
        -1.5099033134902123e-14,
        -7.105427357601001e-15,
        0.9999999999999994
      ],
      "name": "feliz 3",
      "mesh": 9
    },
    {
      "matrix": [
        0.7280251420875689,
        0,
        0,
        0,
        0,
        0.7280251420875689,
        0,
        0,
        0,
        0,
        0.7280251420875689,
        0,
        -5.551115123125782e-16,
        -1.5099033134902123e-14,
        -7.105427357601001e-15,
        0.9999999999999994
      ],
      "name": "NORMAL",
      "mesh": 10
    },
    {
      "matrix": [
        0.7280251420875689,
        0,
        0,
        0,
        0,
        0.7280251420875689,
        0,
        0,
        0,
        0,
        0.7280251420875689,
        0,
        -6.661338147750939e-16,
        -1.8651746813702627e-14,
        -7.105427357601001e-15,
        0.9999999999999996
      ],
      "name": "corazón 3",
      "mesh": 11
    },
    {
      "matrix": [
        0.7280251420875689,
        0,
        0,
        0,
        0,
        0.7280251420875689,
        0,
        0,
        0,
        0,
        0.7280251420875689,
        0,
        -6.661338147750939e-16,
        -1.8651746813702627e-14,
        -7.105427357601001e-15,
        0.9999999999999996
      ],
      "name": "feliz 2",
      "mesh": 12
    },
    {
      "matrix": [
        1,
        0,
        0,
        0,
        0,
        1,
        0,
        0,
        0,
        0,
        1,
        0,
        1.6390854694999488,
        7.582694854012331,
        26.552426023676905,
        1
      ],
      "name": "ESTADO",
      "children": [
        13,
        14,
        15,
        16
      ]
    },
    {
      "matrix": [
        1.026622105505359,
        0,
        0,
        0,
        0,
        1.026622105505359,
        0,
        0,
        0,
        0,
        1.026622105505359,
        0,
        1.5876189252139742e-14,
        0,
        7.815658780248576,
        1
      ],
      "name": "Compornentes",
      "children": [
        11,
        12,
        17
      ]
    },
    {
      "matrix": [
        1,
        0,
        0,
        0,
        0,
        1,
        0,
        0,
        0,
        0,
        1,
        0,
        -0.9200000000000159,
        24.22,
        -25.129591715301473,
        1
      ],
      "name": "Robot",
      "children": [
        10,
        18
      ]
    },
    {
      "name": "Cuerpo",
      "children": [
        7,
        19
      ]
    },
    {
      "matrix": [
        0.5883484054145521,
        0.39223227027636803,
        -0.7071067811865475,
        0,
        -0.554700196225229,
        0.8320502943378437,
        0,
        0,
        0.588348405414552,
        0.392232270276368,
        0.7071067811865476,
        0,
        0,
        0,
        0,
        1
      ],
      "name": "Directional Light",
      "extensions": {
        "KHR_lights_punctual": {
          "light": 0
        }
      }
    },
    {
      "matrix": [
        1,
        0,
        0,
        0,
        0,
        1,
        -6.123233995736766e-17,
        0,
        0,
        6.123233995736766e-17,
        1,
        0,
        0,
        6.123233995736766e-14,
        1000,
        1
      ],
      "camera": 0
    },
    {
      "matrix": [
        1,
        0,
        0,
        0,
        0,
        1,
        0,
        0,
        0,
        0,
        1,
        0,
        0,
        1,
        0,
        1
      ],
      "name": "Default Ambient Light"
    },
    {
      "name": "Scene 1",
      "children": [
        3,
        4,
        20,
        21,
        22,
        23
      ]
    }
  ],
  "bufferViews": [
    {
      "buffer": 0,
      "byteOffset": 0,
      "byteLength": 48,
      "target": 34962,
      "byteStride": 12
    },
    {
      "buffer": 0,
      "byteOffset": 48,
      "byteLength": 48,
      "target": 34962,
      "byteStride": 12
    },
    {
      "buffer": 0,
      "byteOffset": 96,
      "byteLength": 32,
      "target": 34962,
      "byteStride": 8
    },
    {
      "buffer": 0,
      "byteOffset": 128,
      "byteLength": 24,
      "target": 34963
    },
    {
      "buffer": 0,
      "byteOffset": 152,
      "byteLength": 48,
      "target": 34962,
      "byteStride": 12
    },
    {
      "buffer": 0,
      "byteOffset": 200,
      "byteLength": 48,
      "target": 34962,
      "byteStride": 12
    },
    {
      "buffer": 0,
      "byteOffset": 248,
      "byteLength": 32,
      "target": 34962,
      "byteStride": 8
    },
    {
      "buffer": 0,
      "byteOffset": 280,
      "byteLength": 24,
      "target": 34963
    },
    {
      "buffer": 0,
      "byteOffset": 304,
      "byteLength": 48,
      "target": 34962,
      "byteStride": 12
    },
    {
      "buffer": 0,
      "byteOffset": 352,
      "byteLength": 48,
      "target": 34962,
      "byteStride": 12
    },
    {
      "buffer": 0,
      "byteOffset": 400,
      "byteLength": 32,
      "target": 34962,
      "byteStride": 8
    },
    {
      "buffer": 0,
      "byteOffset": 432,
      "byteLength": 24,
      "target": 34963
    },
    {
      "buffer": 0,
      "byteOffset": 456,
      "byteLength": 50700,
      "target": 34962,
      "byteStride": 12
    },
    {
      "buffer": 0,
      "byteOffset": 51156,
      "byteLength": 50700,
      "target": 34962,
      "byteStride": 12
    },
    {
      "buffer": 0,
      "byteOffset": 101856,
      "byteLength": 33800,
      "target": 34962,
      "byteStride": 8
    },
    {
      "buffer": 0,
      "byteOffset": 135656,
      "byteLength": 48384,
      "target": 34963
    },
    {
      "buffer": 0,
      "byteOffset": 184040,
      "byteLength": 50700,
      "target": 34962,
      "byteStride": 12
    },
    {
      "buffer": 0,
      "byteOffset": 234740,
      "byteLength": 50700,
      "target": 34962,
      "byteStride": 12
    },
    {
      "buffer": 0,
      "byteOffset": 285440,
      "byteLength": 33800,
      "target": 34962,
      "byteStride": 8
    },
    {
      "buffer": 0,
      "byteOffset": 319240,
      "byteLength": 48384,
      "target": 34963
    },
    {
      "buffer": 0,
      "byteOffset": 367624,
      "byteLength": 50700,
      "target": 34962,
      "byteStride": 12
    },
    {
      "buffer": 0,
      "byteOffset": 418324,
      "byteLength": 50700,
      "target": 34962,
      "byteStride": 12
    },
    {
      "buffer": 0,
      "byteOffset": 469024,
      "byteLength": 33800,
      "target": 34962,
      "byteStride": 8
    },
    {
      "buffer": 0,
      "byteOffset": 502824,
      "byteLength": 48384,
      "target": 34963
    },
    {
      "buffer": 0,
      "byteOffset": 551208,
      "byteLength": 7200,
      "target": 34962,
      "byteStride": 12
    },
    {
      "buffer": 0,
      "byteOffset": 558408,
      "byteLength": 7200,
      "target": 34962,
      "byteStride": 12
    },
    {
      "buffer": 0,
      "byteOffset": 565608,
      "byteLength": 4800,
      "target": 34962,
      "byteStride": 8
    },
    {
      "buffer": 0,
      "byteOffset": 570408,
      "byteLength": 4296,
      "target": 34963
    },
    {
      "buffer": 0,
      "byteOffset": 574704,
      "byteLength": 7200,
      "target": 34962,
      "byteStride": 12
    },
    {
      "buffer": 0,
      "byteOffset": 581904,
      "byteLength": 7200,
      "target": 34962,
      "byteStride": 12
    },
    {
      "buffer": 0,
      "byteOffset": 589104,
      "byteLength": 4800,
      "target": 34962,
      "byteStride": 8
    },
    {
      "buffer": 0,
      "byteOffset": 593904,
      "byteLength": 4296,
      "target": 34963
    },
    {
      "buffer": 0,
      "byteOffset": 598200,
      "byteLength": 7200,
      "target": 34962,
      "byteStride": 12
    },
    {
      "buffer": 0,
      "byteOffset": 605400,
      "byteLength": 7200,
      "target": 34962,
      "byteStride": 12
    },
    {
      "buffer": 0,
      "byteOffset": 612600,
      "byteLength": 4800,
      "target": 34962,
      "byteStride": 8
    },
    {
      "buffer": 0,
      "byteOffset": 617400,
      "byteLength": 4296,
      "target": 34963
    },
    {
      "buffer": 0,
      "byteOffset": 621696,
      "byteLength": 7200,
      "target": 34962,
      "byteStride": 12
    },
    {
      "buffer": 0,
      "byteOffset": 628896,
      "byteLength": 7200,
      "target": 34962,
      "byteStride": 12
    },
    {
      "buffer": 0,
      "byteOffset": 636096,
      "byteLength": 4800,
      "target": 34962,
      "byteStride": 8
    },
    {
      "buffer": 0,
      "byteOffset": 640896,
      "byteLength": 4296,
      "target": 34963
    },
    {
      "buffer": 0,
      "byteOffset": 645192,
      "byteLength": 7200,
      "target": 34962,
      "byteStride": 12
    },
    {
      "buffer": 0,
      "byteOffset": 652392,
      "byteLength": 7200,
      "target": 34962,
      "byteStride": 12
    },
    {
      "buffer": 0,
      "byteOffset": 659592,
      "byteLength": 4800,
      "target": 34962,
      "byteStride": 8
    },
    {
      "buffer": 0,
      "byteOffset": 664392,
      "byteLength": 4296,
      "target": 34963
    },
    {
      "buffer": 0,
      "byteOffset": 668688,
      "byteLength": 7200,
      "target": 34962,
      "byteStride": 12
    },
    {
      "buffer": 0,
      "byteOffset": 675888,
      "byteLength": 7200,
      "target": 34962,
      "byteStride": 12
    },
    {
      "buffer": 0,
      "byteOffset": 683088,
      "byteLength": 4800,
      "target": 34962,
      "byteStride": 8
    },
    {
      "buffer": 0,
      "byteOffset": 687888,
      "byteLength": 4296,
      "target": 34963
    },
    {
      "buffer": 0,
      "byteOffset": 692184,
      "byteLength": 7200,
      "target": 34962,
      "byteStride": 12
    },
    {
      "buffer": 0,
      "byteOffset": 699384,
      "byteLength": 7200,
      "target": 34962,
      "byteStride": 12
    },
    {
      "buffer": 0,
      "byteOffset": 706584,
      "byteLength": 4800,
      "target": 34962,
      "byteStride": 8
    },
    {
      "buffer": 0,
      "byteOffset": 711384,
      "byteLength": 4296,
      "target": 34963
    }
  ],
  "buffers": [
    {
      "byteLength": 715680,
      "uri": "data:application/octet-stream;base64,"
    }
  ],
  "accessors": [
    {
      "bufferView": 0,
      "componentType": 5126,
      "count": 4,
      "max": [
        2141.742431640625,
        653.6441650390625,
        0
      ],
      "min": [
        -2141.742431640625,
        -653.6441650390625,
        0
      ],
      "type": "VEC3"
    },
    {
      "bufferView": 1,
      "componentType": 5126,
      "count": 4,
      "max": [
        0,
        0,
        1
      ],
      "min": [
        0,
        0,
        1
      ],
      "type": "VEC3"
    },
    {
      "bufferView": 2,
      "componentType": 5126,
      "count": 4,
      "max": [
        1,
        1
      ],
      "min": [
        0,
        0
      ],
      "type": "VEC2"
    },
    {
      "bufferView": 3,
      "componentType": 5125,
      "count": 6,
      "max": [
        3
      ],
      "min": [
        0
      ],
      "type": "SCALAR"
    },
    {
      "bufferView": 4,
      "componentType": 5126,
      "count": 4,
      "max": [
        2141.742431640625,
        737.6307373046875,
        0
      ],
      "min": [
        -2141.742431640625,
        -737.6307373046875,
        0
      ],
      "type": "VEC3"
    },
    {
      "bufferView": 5,
      "componentType": 5126,
      "count": 4,
      "max": [
        0,
        0,
        1
      ],
      "min": [
        0,
        0,
        1
      ],
      "type": "VEC3"
    },
    {
      "bufferView": 6,
      "componentType": 5126,
      "count": 4,
      "max": [
        1,
        1
      ],
      "min": [
        0,
        0
      ],
      "type": "VEC2"
    },
    {
      "bufferView": 7,
      "componentType": 5125,
      "count": 6,
      "max": [
        3
      ],
      "min": [
        0
      ],
      "type": "SCALAR"
    },
    {
      "bufferView": 8,
      "componentType": 5126,
      "count": 4,
      "max": [
        2151.2841796875,
        1541.8428955078125,
        0
      ],
      "min": [
        -2151.2841796875,
        -1541.8428955078125,
        0
      ],
      "type": "VEC3"
    },
    {
      "bufferView": 9,
      "componentType": 5126,
      "count": 4,
      "max": [
        0,
        0,
        1
      ],
      "min": [
        0,
        0,
        1
      ],
      "type": "VEC3"
    },
    {
      "bufferView": 10,
      "componentType": 5126,
      "count": 4,
      "max": [
        1,
        1
      ],
      "min": [
        0,
        0
      ],
      "type": "VEC2"
    },
    {
      "bufferView": 11,
      "componentType": 5125,
      "count": 6,
      "max": [
        3
      ],
      "min": [
        0
      ],
      "type": "SCALAR"
    },
    {
      "bufferView": 12,
      "componentType": 5126,
      "count": 4225,
      "max": [
        20,
        20,
        20
      ],
      "min": [
        -20,
        -20,
        -20
      ],
      "type": "VEC3"
    },
    {
      "bufferView": 13,
      "componentType": 5126,
      "count": 4225,
      "max": [
        1,
        1,
        1
      ],
      "min": [
        -1,
        -1,
        -1
      ],
      "type": "VEC3"
    },
    {
      "bufferView": 14,
      "componentType": 5126,
      "count": 4225,
      "max": [
        1.0078125,
        1
      ],
      "min": [
        -0.0078125,
        0
      ],
      "type": "VEC2"
    },
    {
      "bufferView": 15,
      "componentType": 5123,
      "count": 24192,
      "max": [
        4224
      ],
      "min": [
        0
      ],
      "type": "SCALAR"
    },
    {
      "bufferView": 16,
      "componentType": 5126,
      "count": 4225,
      "max": [
        20,
        20,
        20
      ],
      "min": [
        -20,
        -20,
        -20
      ],
      "type": "VEC3"
    },
    {
      "bufferView": 17,
      "componentType": 5126,
      "count": 4225,
      "max": [
        1,
        1,
        1
      ],
      "min": [
        -1,
        -1,
        -1
      ],
      "type": "VEC3"
    },
    {
      "bufferView": 18,
      "componentType": 5126,
      "count": 4225,
      "max": [
        1.0078125,
        1
      ],
      "min": [
        -0.0078125,
        0
      ],
      "type": "VEC2"
    },
    {
      "bufferView": 19,
      "componentType": 5123,
      "count": 24192,
      "max": [
        4224
      ],
      "min": [
        0
      ],
      "type": "SCALAR"
    },
    {
      "bufferView": 20,
      "componentType": 5126,
      "count": 4225,
      "max": [
        50.77362823486328,
        55.24348449707031,
        70.4326171875
      ],
      "min": [
        -50.77362823486328,
        -55.24348449707031,
        -70.4326171875
      ],
      "type": "VEC3"
    },
    {
      "bufferView": 21,
      "componentType": 5126,
      "count": 4225,
      "max": [
        1,
        1,
        1
      ],
      "min": [
        -1,
        -1,
        -1
      ],
      "type": "VEC3"
    },
    {
      "bufferView": 22,
      "componentType": 5126,
      "count": 4225,
      "max": [
        1.0078125,
        1
      ],
      "min": [
        -0.0078125,
        0
      ],
      "type": "VEC2"
    },
    {
      "bufferView": 23,
      "componentType": 5123,
      "count": 24192,
      "max": [
        4224
      ],
      "min": [
        0
      ],
      "type": "SCALAR"
    },
    {
      "bufferView": 24,
      "componentType": 5126,
      "count": 600,
      "max": [
        105.50484466552734,
        81.5,
        81.5
      ],
      "min": [
        -105.50484466552734,
        -81.5,
        -81.5
      ],
      "type": "VEC3"
    },
    {
      "bufferView": 25,
      "componentType": 5126,
      "count": 600,
      "max": [
        1,
        1,
        1
      ],
      "min": [
        -1,
        -1,
        -1
      ],
      "type": "VEC3"
    },
    {
      "bufferView": 26,
      "componentType": 5126,
      "count": 600,
      "max": [
        1,
        1
      ],
      "min": [
        0,
        0
      ],
      "type": "VEC2"
    },
    {
      "bufferView": 27,
      "componentType": 5123,
      "count": 2148,
      "max": [
        599
      ],
      "min": [
        0
      ],
      "type": "SCALAR"
    },
    {
      "bufferView": 28,
      "componentType": 5126,
      "count": 600,
      "max": [
        105.50484466552734,
        81.5,
        81.5
      ],
      "min": [
        -105.50484466552734,
        -81.5,
        -81.5
      ],
      "type": "VEC3"
    },
    {
      "bufferView": 29,
      "componentType": 5126,
      "count": 600,
      "max": [
        1,
        1,
        1
      ],
      "min": [
        -1,
        -1,
        -1
      ],
      "type": "VEC3"
    },
    {
      "bufferView": 30,
      "componentType": 5126,
      "count": 600,
      "max": [
        1,
        1
      ],
      "min": [
        0,
        0
      ],
      "type": "VEC2"
    },
    {
      "bufferView": 31,
      "componentType": 5123,
      "count": 2148,
      "max": [
        599
      ],
      "min": [
        0
      ],
      "type": "SCALAR"
    },
    {
      "bufferView": 32,
      "componentType": 5126,
      "count": 600,
      "max": [
        105.50484466552734,
        81.5,
        81.5
      ],
      "min": [
        -105.50484466552734,
        -81.5,
        -81.5
      ],
      "type": "VEC3"
    },
    {
      "bufferView": 33,
      "componentType": 5126,
      "count": 600,
      "max": [
        1,
        1,
        1
      ],
      "min": [
        -1,
        -1,
        -1
      ],
      "type": "VEC3"
    },
    {
      "bufferView": 34,
      "componentType": 5126,
      "count": 600,
      "max": [
        1,
        1
      ],
      "min": [
        0,
        0
      ],
      "type": "VEC2"
    },
    {
      "bufferView": 35,
      "componentType": 5123,
      "count": 2148,
      "max": [
        599
      ],
      "min": [
        0
      ],
      "type": "SCALAR"
    },
    {
      "bufferView": 36,
      "componentType": 5126,
      "count": 600,
      "max": [
        105.50484466552734,
        71.0845718383789,
        81.5
      ],
      "min": [
        -105.50484466552734,
        -71.0845718383789,
        -81.5
      ],
      "type": "VEC3"
    },
    {
      "bufferView": 37,
      "componentType": 5126,
      "count": 600,
      "max": [
        1,
        1,
        1
      ],
      "min": [
        -1,
        -1,
        -1
      ],
      "type": "VEC3"
    },
    {
      "bufferView": 38,
      "componentType": 5126,
      "count": 600,
      "max": [
        1,
        1
      ],
      "min": [
        0,
        0
      ],
      "type": "VEC2"
    },
    {
      "bufferView": 39,
      "componentType": 5123,
      "count": 2148,
      "max": [
        599
      ],
      "min": [
        0
      ],
      "type": "SCALAR"
    },
    {
      "bufferView": 40,
      "componentType": 5126,
      "count": 600,
      "max": [
        105.50484466552734,
        71.0845718383789,
        81.5
      ],
      "min": [
        -105.50484466552734,
        -71.0845718383789,
        -81.5
      ],
      "type": "VEC3"
    },
    {
      "bufferView": 41,
      "componentType": 5126,
      "count": 600,
      "max": [
        1,
        1,
        1
      ],
      "min": [
        -1,
        -1,
        -1
      ],
      "type": "VEC3"
    },
    {
      "bufferView": 42,
      "componentType": 5126,
      "count": 600,
      "max": [
        1,
        1
      ],
      "min": [
        0,
        0
      ],
      "type": "VEC2"
    },
    {
      "bufferView": 43,
      "componentType": 5123,
      "count": 2148,
      "max": [
        599
      ],
      "min": [
        0
      ],
      "type": "SCALAR"
    },
    {
      "bufferView": 44,
      "componentType": 5126,
      "count": 600,
      "max": [
        105.50484466552734,
        71.0845718383789,
        81.5
      ],
      "min": [
        -105.50484466552734,
        -71.0845718383789,
        -81.5
      ],
      "type": "VEC3"
    },
    {
      "bufferView": 45,
      "componentType": 5126,
      "count": 600,
      "max": [
        1,
        1,
        1
      ],
      "min": [
        -1,
        -1,
        -1
      ],
      "type": "VEC3"
    },
    {
      "bufferView": 46,
      "componentType": 5126,
      "count": 600,
      "max": [
        1,
        1
      ],
      "min": [
        0,
        0
      ],
      "type": "VEC2"
    },
    {
      "bufferView": 47,
      "componentType": 5123,
      "count": 2148,
      "max": [
        599
      ],
      "min": [
        0
      ],
      "type": "SCALAR"
    },
    {
      "bufferView": 48,
      "componentType": 5126,
      "count": 600,
      "max": [
        105.50484466552734,
        71.0845718383789,
        81.5
      ],
      "min": [
        -105.50484466552734,
        -71.0845718383789,
        -81.5
      ],
      "type": "VEC3"
    },
    {
      "bufferView": 49,
      "componentType": 5126,
      "count": 600,
      "max": [
        1,
        1,
        1
      ],
      "min": [
        -1,
        -1,
        -1
      ],
      "type": "VEC3"
    },
    {
      "bufferView": 50,
      "componentType": 5126,
      "count": 600,
      "max": [
        1,
        1
      ],
      "min": [
        0,
        0
      ],
      "type": "VEC2"
    },
    {
      "bufferView": 51,
      "componentType": 5123,
      "count": 2148,
      "max": [
        599
      ],
      "min": [
        0
      ],
      "type": "SCALAR"
    }
  ],
  "meshes": [
    {
      "primitives": [
        {
          "mode": 4,
          "attributes": {
            "POSITION": 0,
            "NORMAL": 1,
            "TEXCOORD_0": 2
          },
          "extras": {
            "shape": {
              "points": [
                -2141.7425408163735,
                653.6441683850128,
                -2141.7425408163735,
                653.6441683850128,
                -2141.7425408163735,
                653.6441683850128,
                0,
                2141.7425408163735,
                653.6441683850128,
                2141.7425408163735,
                653.6441683850128,
                2141.7425408163735,
                653.6441683850128,
                0,
                2141.7425408163735,
                -653.6441683850128,
                2141.7425408163735,
                -653.6441683850128,
                2141.7425408163735,
                -653.6441683850128,
                0,
                -2141.7425408163735,
                -653.6441683850128,
                -2141.7425408163735,
                -653.6441683850128,
                -2141.7425408163735,
                -653.6441683850128,
                0
              ],
              "shapeHoles": [],
              "isClosed": true,
              "roundness": 0
            },
            "parameters": {
              "width": 4283.485081632747,
              "depth": 0,
              "cornerRadius": [
                0,
                0,
                0,
                0
              ],
              "cornerType": 1,
              "extrudeBevelSize": 0,
              "extrudeBevelSegments": 1,
              "height": 1307.2883367700256,
              "type": "RectangleGeometry"
            },
            "ui": {
              "enabledIndieCorners": false
            },
            "type": "RectangleGeometry"
          },
          "indices": 3
        }
      ]
    },
    {
      "primitives": [
        {
          "mode": 4,
          "attributes": {
            "POSITION": 4,
            "NORMAL": 5,
            "TEXCOORD_0": 6
          },
          "extras": {
            "shape": {
              "points": [
                -2141.7425408163735,
                737.6307487400716,
                -2141.7425408163735,
                737.6307487400716,
                -2141.7425408163735,
                737.6307487400716,
                0,
                2141.7425408163735,
                737.6307487400716,
                2141.7425408163735,
                737.6307487400716,
                2141.7425408163735,
                737.6307487400716,
                0,
                2141.7425408163735,
                -737.6307487400716,
                2141.7425408163735,
                -737.6307487400716,
                2141.7425408163735,
                -737.6307487400716,
                0,
                -2141.7425408163735,
                -737.6307487400716,
                -2141.7425408163735,
                -737.6307487400716,
                -2141.7425408163735,
                -737.6307487400716,
                0
              ],
              "shapeHoles": [],
              "isClosed": true,
              "roundness": 0
            },
            "parameters": {
              "width": 4283.485081632747,
              "depth": 0,
              "cornerRadius": [
                0,
                0,
                0,
                0
              ],
              "cornerType": 1,
              "extrudeBevelSize": 0,
              "extrudeBevelSegments": 1,
              "height": 1475.2614974801431,
              "type": "RectangleGeometry"
            },
            "ui": {
              "enabledIndieCorners": false
            },
            "type": "RectangleGeometry"
          },
          "indices": 7
        }
      ]
    },
    {
      "primitives": [
        {
          "mode": 4,
          "attributes": {
            "POSITION": 8,
            "NORMAL": 9,
            "TEXCOORD_0": 10
          },
          "extras": {
            "shape": {
              "points": [
                -2151.2841049522367,
                1541.8429229459005,
                -2151.2841049522367,
                1541.8429229459005,
                -2151.2841049522367,
                1541.8429229459005,
                0,
                2151.2841049522367,
                1541.8429229459005,
                2151.2841049522367,
                1541.8429229459005,
                2151.2841049522367,
                1541.8429229459005,
                0,
                2151.2841049522367,
                -1541.8429229459005,
                2151.2841049522367,
                -1541.8429229459005,
                2151.2841049522367,
                -1541.8429229459005,
                0,
                -2151.2841049522367,
                -1541.8429229459005,
                -2151.2841049522367,
                -1541.8429229459005,
                -2151.2841049522367,
                -1541.8429229459005,
                0
              ],
              "shapeHoles": [],
              "isClosed": true,
              "roundness": 0
            },
            "parameters": {
              "width": 4302.568209904473,
              "depth": 0,
              "cornerRadius": [
                0,
                0,
                0,
                0
              ],
              "cornerType": 1,
              "extrudeBevelSize": 0,
              "extrudeBevelSegments": 1,
              "height": 3083.685845891801,
              "type": "RectangleGeometry"
            },
            "ui": {
              "enabledIndieCorners": false
            },
            "type": "RectangleGeometry"
          },
          "indices": 11
        }
      ]
    },
    {
      "primitives": [
        {
          "mode": 4,
          "attributes": {
            "POSITION": 12,
            "NORMAL": 13,
            "TEXCOORD_0": 14
          },
          "extras": {
            "parameters": {
              "width": 40,
              "widthSegments": 64,
              "heightSegments": 64,
              "phiStart": 0,
              "phiLength": 6.283185307179586,
              "thetaStart": 0,
              "thetaLength": 180,
              "height": 40,
              "depth": 40,
              "type": "SphereGeometry"
            },
            "type": "SphereGeometry"
          },
          "indices": 15
        }
      ]
    },
    {
      "primitives": [
        {
          "mode": 4,
          "attributes": {
            "POSITION": 16,
            "NORMAL": 17,
            "TEXCOORD_0": 18
          },
          "extras": {
            "parameters": {
              "width": 40,
              "widthSegments": 64,
              "heightSegments": 64,
              "phiStart": 0,
              "phiLength": 6.283185307179586,
              "thetaStart": 0,
              "thetaLength": 180,
              "height": 40,
              "depth": 40,
              "type": "SphereGeometry"
            },
            "type": "SphereGeometry"
          },
          "indices": 19
        }
      ]
    },
    {
      "primitives": [
        {
          "mode": 4,
          "attributes": {
            "POSITION": 20,
            "NORMAL": 21,
            "TEXCOORD_0": 22
          },
          "extras": {
            "parameters": {
              "width": 101.54725953896816,
              "widthSegments": 64,
              "heightSegments": 64,
              "phiStart": 0,
              "phiLength": 6.283185307179586,
              "thetaStart": 0,
              "thetaLength": 180,
              "height": 110.48697511465694,
              "depth": 140.86524123698,
              "type": "SphereGeometry"
            },
            "type": "SphereGeometry"
          },
          "indices": 23
        }
      ]
    },
    {
      "primitives": [
        {
          "mode": 4,
          "attributes": {
            "POSITION": 24,
            "NORMAL": 25,
            "TEXCOORD_0": 26
          },
          "extras": {
            "parameters": {
              "width": 211.00968554844013,
              "widthSegments": 1,
              "heightSegments": 1,
              "depthSegments": 1,
              "cornerRadius": 38,
              "cornerSegments": 8,
              "depth": 162.9999999999999,
              "height": 162.9999999999999,
              "type": "CubeGeometry"
            },
            "type": "CubeGeometry"
          },
          "indices": 27
        }
      ]
    },
    {
      "primitives": [
        {
          "mode": 4,
          "attributes": {
            "POSITION": 28,
            "NORMAL": 29,
            "TEXCOORD_0": 30
          },
          "extras": {
            "parameters": {
              "width": 211.00968554844013,
              "widthSegments": 1,
              "heightSegments": 1,
              "depthSegments": 1,
              "cornerRadius": 38,
              "cornerSegments": 8,
              "depth": 162.9999999999999,
              "height": 162.9999999999999,
              "type": "CubeGeometry"
            },
            "type": "CubeGeometry"
          },
          "indices": 31
        }
      ]
    },
    {
      "primitives": [
        {
          "mode": 4,
          "attributes": {
            "POSITION": 32,
            "NORMAL": 33,
            "TEXCOORD_0": 34
          },
          "extras": {
            "parameters": {
              "width": 211.00968554844013,
              "widthSegments": 1,
              "heightSegments": 1,
              "depthSegments": 1,
              "cornerRadius": 38,
              "cornerSegments": 8,
              "depth": 162.9999999999999,
              "height": 162.9999999999999,
              "type": "CubeGeometry"
            },
            "type": "CubeGeometry"
          },
          "indices": 35
        }
      ]
    },
    {
      "primitives": [
        {
          "mode": 4,
          "attributes": {
            "POSITION": 36,
            "NORMAL": 37,
            "TEXCOORD_0": 38
          },
          "extras": {
            "parameters": {
              "width": 211.00968554844013,
              "widthSegments": 1,
              "heightSegments": 1,
              "depthSegments": 1,
              "cornerRadius": 38,
              "cornerSegments": 8,
              "depth": 162.9999999999999,
              "height": 142.1691401418654,
              "type": "CubeGeometry"
            },
            "type": "CubeGeometry"
          },
          "indices": 39
        }
      ]
    },
    {
      "primitives": [
        {
          "mode": 4,
          "attributes": {
            "POSITION": 40,
            "NORMAL": 41,
            "TEXCOORD_0": 42
          },
          "extras": {
            "parameters": {
              "width": 211.00968554844013,
              "widthSegments": 1,
              "heightSegments": 1,
              "depthSegments": 1,
              "cornerRadius": 38,
              "cornerSegments": 8,
              "depth": 162.9999999999999,
              "height": 142.1691401418654,
              "type": "CubeGeometry"
            },
            "type": "CubeGeometry"
          },
          "indices": 43
        }
      ]
    },
    {
      "primitives": [
        {
          "mode": 4,
          "attributes": {
            "POSITION": 44,
            "NORMAL": 45,
            "TEXCOORD_0": 46
          },
          "extras": {
            "parameters": {
              "width": 211.00968554844013,
              "widthSegments": 1,
              "heightSegments": 1,
              "depthSegments": 1,
              "cornerRadius": 38,
              "cornerSegments": 8,
              "depth": 162.9999999999999,
              "height": 142.1691401418654,
              "type": "CubeGeometry"
            },
            "type": "CubeGeometry"
          },
          "indices": 47
        }
      ]
    },
    {
      "primitives": [
        {
          "mode": 4,
          "attributes": {
            "POSITION": 48,
            "NORMAL": 49,
            "TEXCOORD_0": 50
          },
          "extras": {
            "parameters": {
              "width": 211.00968554844013,
              "widthSegments": 1,
              "heightSegments": 1,
              "depthSegments": 1,
              "cornerRadius": 38,
              "cornerSegments": 8,
              "depth": 162.9999999999999,
              "height": 142.1691401418654,
              "type": "CubeGeometry"
            },
            "type": "CubeGeometry"
          },
          "indices": 51
        }
      ]
    }
  ],
  "extensions": {
    "KHR_lights_punctual": {
      "lights": [
        {
          "name": "Directional Light",
          "color": [
            1,
            1,
            1
          ],
          "intensity": 0.7,
          "type": "directional"
        }
      ]
    }
  },
  "cameras": [
    {
      "type": "orthographic",
      "orthographic": {
        "xmag": 3.375771548559042,
        "ymag": 1.5316408069081442,
        "zfar": 100000,
        "znear": 0
      }
    }
  ],
  "extensionsUsed": [
    "KHR_lights_punctual"
  ]
}